<svg xmlns="http://www.w3.org/2000/svg" xmlns:xlink="http://www.w3.org/1999/xlink" width="1440" height="400" version="1.1" viewBox="0 0 1440 400"><title>March Madness - Signed Out</title><desc>Created with Sketch.</desc><g id="Page-1" fill="none" fill-rule="evenodd" stroke="none" stroke-width="1"><g id="March-Madness---Signed-Out"><g id="Hero" transform="translate(-153.000000, -19.000000)"><g id="Group" stroke="#2E3D49" stroke-width="5" transform="translate(787.000000, 0.000000)"><ellipse id="Oval-1" cx="85.621" cy="85.5" fill="#F95C3C" rx="85.621" ry="85.5"/><path id="Path-395" d="M82.9630598,0 C38.1635003,22.1877938 49.8754359,145.41325 103.134109,168.750778"/><path id="Path-396" d="M139.868392,19.4479397 C66.9625551,24.4429273 94.3791988,120.051127 148.691561,141.712821"/><path id="Path-397" d="M5.30396476,48.302584 C30.1534738,29.3904379 36.4889455,107.719921 24.5004754,142.247788" transform="translate(17.840205, 93.823009) rotate(-356.000000) translate(-17.840205, -93.823009)"/><path id="Path-398" d="M1.35706911,98.3051974 C31.3428208,58.4324876 97.5994631,52.2700325 171.440597,81.2468715"/></g><ellipse id="Oval-4" cx="458.592" cy="306.5" fill="#DBE2E8" opacity=".49" rx="34" ry="3.5"/><ellipse id="Oval-4-Copy-2" cx="1400.837" cy="366.859" fill="#DBE2E8" rx="45" ry="3.5"/><ellipse id="Oval-4-Copy" cx="873" cy="229.5" fill="#DBE2E8" opacity=".341" rx="80" ry="3.5"/><g id="Group-Copy-2" stroke="#2E3D49" stroke-width="4" transform="translate(458.000000, 230.407520) rotate(-86.000000) translate(-458.000000, -230.407520) translate(415.500000, 187.907520)"><ellipse id="Oval-1" cx="42.422" cy="42.236" fill="#02CCBA" rx="42.422" ry="42.236"/><path id="Path-395" d="M41.1050423,-1.70530257e-13 C18.9085636,10.9605006 24.7113825,71.8323787 51.0990303,83.3608338"/><path id="Path-396" d="M69.2994712,9.60704592 C33.1774005,12.0745091 46.7613052,59.303798 73.671016,70.004412"/><path id="Path-397" d="M2.62791291,23.8608896 C14.9399,14.5185192 18.0788854,53.2123319 12.1390542,70.2686787" transform="translate(8.839143, 46.347426) rotate(-356.000000) translate(-8.839143, -46.347426)"/><path id="Path-398" d="M0.672376154,48.5615731 C15.5291762,28.8649389 48.3568237,25.820761 84.9422987,40.1349674"/></g><path id="Path-407" stroke="#91DAEE" stroke-dasharray="3" d="M396.287793,238.975126 C360.307977,247.657764 330.834668,277.646027 330.834668,302.310089 C316.999305,285.526271 272.014355,164 0.592480109,164"/><path id="Path-407-Copy" stroke="#91DAEE" stroke-dasharray="3" d="M1428.22266,123.668583 C1360.06641,141.283557 1339.11632,201.004481 1329.44141,222.686163 C1321.21094,141.245292 1196.85943,-2.94966315 965,0.756225605" transform="translate(1196.611328, 111.686163) scale(-1, 1) translate(-1196.611328, -111.686163)"/><g id="Group-Copy" stroke="#2E3D49" stroke-width="4" transform="translate(1400.000000, 297.907520) rotate(-282.000000) translate(-1400.000000, -297.907520) translate(1332.000000, 230.407520)"><ellipse id="Oval-1" cx="67.663" cy="67.367" fill="#02B3E4" rx="67.663" ry="67.367"/><path id="Path-395" d="M65.5627854,-1.13686838e-12 C30.1592707,17.4820632 39.4148011,114.573069 81.5032553,132.961023"/><path id="Path-396" d="M110.533066,15.323295 C52.9181498,19.2589133 74.5845581,94.5899084 117.505706,111.657451"/><path id="Path-397" d="M4.19153662,38.05826 C23.8292287,23.1571239 28.835929,84.8739839 19.3618631,112.078958" transform="translate(14.098486, 73.924419) rotate(-356.000000) translate(-14.098486, -73.924419)"/><path id="Path-398" d="M1.07244394,77.455996 C24.7691278,46.0397481 77.1294196,41.1842663 135.483468,64.0155101"/></g><ellipse id="Oval-5-Copy-3" cx="595" cy="115" fill="#FFF" stroke="#2E3D49" stroke-width="2" rx="2" ry="2"/><circle id="Oval-5-Copy-4" cx="1231.5" cy="199.5" r="5.5" fill="#15C26B" stroke="#2E3D49" stroke-width="2"/><g id="Spark" stroke="#FFAE0C" stroke-linecap="round" stroke-linejoin="round" stroke-width="3" transform="translate(1064.819353, 121.819353) rotate(-28.000000) translate(-1064.819353, -121.819353) translate(1049.819353, 106.819353)"><path id="Line" d="M14.5,-1.70530257e-12 L14.5,8.33333333"/><path id="Line-Copy-3" d="M14.5,21.6666667 L14.5,30"/><path id="Line-Copy" d="M30,14.5 L21.6666667,14.5"/><path id="Line-Copy-2" d="M8.33333333,14.5 L-1.27471367e-11,14.5"/></g><g id="Spark" stroke="#15C26B" stroke-linecap="round" stroke-linejoin="round" stroke-width="2" transform="translate(661.242878, 212.242878) rotate(-6.000000) translate(-661.242878, -212.242878) translate(653.742878, 204.742878)"><path id="Line" d="M7.19814624,9.98312544e-13 L7.19814624,3.99897013"/><path id="Line-Copy-3" d="M7.19814624,10.3973224 L7.19814624,14.3962925"/><path id="Line-Copy" d="M14.3962925,7.19814624 L10.3973224,7.19814624"/><path id="Line-Copy-2" d="M3.99897013,7.19814624 L-1.59250391e-12,7.19814624"/></g><g id="Spark-Copy" stroke="#7D97AD" stroke-linecap="round" stroke-linejoin="round" stroke-width="2" transform="translate(1523.242878, 197.242878) rotate(-6.000000) translate(-1523.242878, -197.242878) translate(1515.742878, 189.742878)"><path id="Line" d="M7.19814624,4.29878355e-13 L7.19814624,3.99897013"/><path id="Line-Copy-3" d="M7.19814624,10.3973224 L7.19814624,14.3962925"/><path id="Line-Copy" d="M14.3962925,7.19814624 L10.3973224,7.19814624"/><path id="Line-Copy-2" d="M3.99897013,7.19814624 L-2.04725126e-12,7.19814624"/></g><g id="Spark" stroke="#02B3E4" stroke-linecap="round" stroke-linejoin="round" stroke-width="2" transform="translate(347.797959, 177.797959) rotate(15.000000) translate(-347.797959, -177.797959) translate(338.797959, 168.797959)"><path id="Line" d="M8.89428222,4.56079619e-13 L8.89428222,4.9412679"/><path id="Line-Copy-3" d="M8.89428222,12.8472965 L8.89428222,17.7885644"/><path id="Line-Copy" d="M17.7885644,8.89428222 L12.8472965,8.89428222"/><path id="Line-Copy-2" d="M4.9412679,8.89428222 L-5.48006085e-13,8.89428222"/></g></g></g></g></svg>