<svg xmlns="http://www.w3.org/2000/svg" xmlns:svg="http://www.w3.org/2000/svg" id="Layer_1" width="200" height="200" enable-background="new 0 0 512 512" version="1.1" viewBox="0 0 200 200" xml:space="preserve"><metadata id="metadata23"/><g id="g3" transform="matrix(0.29293805,0,0,0.26301673,25.007859,32.668237)" style="fill:#fff"><g id="g5" style="fill:#fff"><path id="path7" d="m 361.9,401.4 c -2.8,0 -5.5,-1.1 -7.6,-3.2 -4,-4.2 -3.9,-10.9 0.3,-14.9 L 494.2,248.4 c 4.2,-4 10.9,-3.9 14.9,0.3 4,4.2 3.9,10.9 -0.3,14.9 L 369.2,398.5 c -2.1,1.9 -4.7,2.9 -7.3,2.9 z" style="fill:#fff"/><path id="path9" d="m 501.5,266.5 c -2.6,0 -5.3,-1 -7.3,-3 L 354.5,128.7 c -4.2,-4 -4.3,-10.7 -0.3,-14.9 4,-4.2 10.7,-4.3 14.9,-0.3 l 139.6,134.9 c 4.2,4 4.3,10.7 0.3,14.9 -2,2.2 -4.8,3.2 -7.5,3.2 z" style="fill:#fff"/></g><g id="g11" style="fill:#fff"><path id="path13" d="m 150.1,401.4 c -2.6,0 -5.3,-1 -7.3,-3 L 3.2,263.6 c -4.2,-4 -4.3,-10.7 -0.3,-14.9 4,-4.2 10.7,-4.3 14.9,-0.3 l 139.6,134.9 c 4.2,4 4.3,10.7 0.3,14.9 -2.1,2.2 -4.8,3.2 -7.6,3.2 z" style="fill:#fff"/><path id="path15" d="m 10.5,266.5 c -2.8,0 -5.5,-1.1 -7.6,-3.2 -4,-4.2 -3.9,-10.9 0.3,-14.9 L 142.8,113.5 c 4.2,-4 10.9,-3.9 14.9,0.3 4,4.2 3.9,10.9 -0.3,14.9 L 17.9,263.6 c -2.1,2 -4.7,2.9 -7.4,2.9 z" style="fill:#fff"/></g><path id="path17" d="m 205.8,446.1 c -0.9,0 -1.9,-0.1 -2.8,-0.4 -5.6,-1.6 -8.9,-7.4 -7.3,-13 L 296,73.6 c 1.6,-5.6 7.4,-8.9 13,-7.3 5.6,1.6 8.9,7.4 7.3,13 L 216,438.4 c -1.3,4.7 -5.6,7.7 -10.2,7.7 z" style="fill:#fff"/></g></svg>